<svg xmlns="http://www.w3.org/2000/svg" xmlns:xlink="http://www.w3.org/1999/xlink" width="63" zoomAndPan="magnify" viewBox="0 0 47.25 47.250001" height="63" preserveAspectRatio="xMidYMid meet" version="1.0"><defs><clipPath id="e670f8d267"><path d="M 0 0 L 46.464844 0 L 46.464844 46.464844 L 0 46.464844 Z M 0 0 " clip-rule="nonzero"/></clipPath><clipPath id="32b8b6fdbe"><path d="M 23.234375 0 C 10.402344 0 0 10.402344 0 23.234375 C 0 36.066406 10.402344 46.464844 23.234375 46.464844 C 36.066406 46.464844 46.464844 36.066406 46.464844 23.234375 C 46.464844 10.402344 36.066406 0 23.234375 0 Z M 23.234375 0 " clip-rule="nonzero"/></clipPath><clipPath id="895483776d"><path d="M 0 0 L 46.464844 0 L 46.464844 46.464844 L 0 46.464844 Z M 0 0 " clip-rule="nonzero"/></clipPath><clipPath id="928ee018b1"><path d="M 23.234375 0 C 10.402344 0 0 10.402344 0 23.234375 C 0 36.066406 10.402344 46.464844 23.234375 46.464844 C 36.066406 46.464844 46.464844 36.066406 46.464844 23.234375 C 46.464844 10.402344 36.066406 0 23.234375 0 Z M 23.234375 0 " clip-rule="nonzero"/></clipPath><clipPath id="ac1109fc64"><rect x="0" width="47" y="0" height="47"/></clipPath><clipPath id="3c9c6e2b9a"><path d="M 0 0 L 46.464844 0 L 46.464844 46.464844 L 0 46.464844 Z M 0 0 " clip-rule="nonzero"/></clipPath><clipPath id="ca36667e20"><path d="M 23.234375 0 C 10.402344 0 0 10.402344 0 23.234375 C 0 36.0625 10.402344 46.464844 23.234375 46.464844 C 36.0625 46.464844 46.464844 36.0625 46.464844 23.234375 C 46.464844 10.402344 36.0625 0 23.234375 0 Z M 23.234375 0 " clip-rule="nonzero"/></clipPath><clipPath id="27c472e6e2"><path d="M 22 24 L 38 24 L 38 38.539062 L 22 38.539062 Z M 22 24 " clip-rule="nonzero"/></clipPath><clipPath id="c3811e8828"><path d="M 11.164062 9.007812 L 35 9.007812 L 35 38.539062 L 11.164062 38.539062 Z M 11.164062 9.007812 " clip-rule="nonzero"/></clipPath></defs><g clip-path="url(#e670f8d267)"><g clip-path="url(#32b8b6fdbe)"><g transform="matrix(1, 0, 0, 1, 0, 0.00000000000000528)"><g clip-path="url(#ac1109fc64)"><g clip-path="url(#895483776d)"><g clip-path="url(#928ee018b1)"><path fill="#4b548b" d="M 0 0 L 46.464844 0 L 46.464844 46.464844 L 0 46.464844 Z M 0 0 " fill-opacity="1" fill-rule="nonzero"/></g></g></g></g></g></g><g clip-path="url(#3c9c6e2b9a)"><g clip-path="url(#ca36667e20)"><path stroke-linecap="butt" transform="matrix(0.738281, 0, 0, 0.738281, -0.000000000000013115, 0.00000246875)" fill="none" stroke-linejoin="miter" d="M 31.470901 -0.00000334392 C 14.089948 -0.00000334392 0.000000000000017764 14.089944 0.000000000000017764 31.470897 C 0.000000000000017764 48.84656 14.089948 62.936507 31.470901 62.936507 C 48.846563 62.936507 62.936511 48.84656 62.936511 31.470897 C 62.936511 14.089944 48.846563 -0.00000334392 31.470901 -0.00000334392 Z M 31.470901 -0.00000334392 " stroke="#ffffff" stroke-width="8" stroke-opacity="1" stroke-miterlimit="4"/></g></g><path fill="#ffffff" d="M 31.054688 35.574219 C 30.824219 35.574219 30.605469 35.484375 30.445312 35.320312 L 26.480469 31.359375 C 26.144531 31.019531 26.144531 30.472656 26.480469 30.136719 L 28.347656 28.269531 C 28.6875 27.929688 29.234375 27.929688 29.570312 28.269531 L 31.054688 29.753906 L 35.523438 25.285156 C 35.6875 25.121094 35.90625 25.03125 36.132812 25.03125 C 36.363281 25.03125 36.582031 25.121094 36.746094 25.285156 L 38.613281 27.152344 C 38.949219 27.488281 38.949219 28.035156 38.613281 28.375 L 31.664062 35.320312 C 31.503906 35.484375 31.285156 35.574219 31.054688 35.574219 Z M 28.3125 30.746094 L 31.054688 33.492188 L 36.78125 27.761719 L 36.132812 27.113281 L 31.664062 31.585938 C 31.328125 31.921875 30.78125 31.921875 30.445312 31.585938 L 28.960938 30.097656 Z M 28.3125 30.746094 " fill-opacity="1" fill-rule="nonzero"/><g clip-path="url(#27c472e6e2)"><path fill="#ffffff" d="M 30.171875 38.503906 C 29.238281 38.503906 28.328125 38.328125 27.464844 37.976562 C 26.574219 37.617188 25.773438 37.085938 25.085938 36.398438 C 24.402344 35.714844 23.871094 34.914062 23.507812 34.019531 C 23.160156 33.160156 22.980469 32.25 22.980469 31.316406 C 22.980469 30.382812 23.160156 29.472656 23.507812 28.609375 C 23.871094 27.71875 24.402344 26.917969 25.085938 26.230469 C 25.6875 25.632812 26.378906 25.148438 27.144531 24.792969 C 27.882812 24.449219 28.667969 24.238281 29.480469 24.160156 C 31.117188 24.003906 32.765625 24.410156 34.128906 25.3125 L 33.175781 26.75 C 31.023438 25.332031 28.136719 25.625 26.308594 27.453125 C 24.179688 29.582031 24.179688 33.046875 26.308594 35.179688 C 28.4375 37.308594 31.902344 37.308594 34.035156 35.179688 C 34.992188 34.222656 35.554688 32.949219 35.625 31.601562 L 37.351562 31.691406 C 37.257812 33.46875 36.511719 35.140625 35.253906 36.398438 C 34.570312 37.085938 33.769531 37.617188 32.875 37.976562 C 32.015625 38.328125 31.105469 38.503906 30.171875 38.503906 Z M 30.171875 38.503906 " fill-opacity="1" fill-rule="nonzero"/></g><path fill="#ffffff" d="M 15.695312 16.683594 L 29.707031 16.683594 L 29.707031 18.410156 L 15.695312 18.410156 Z M 15.695312 16.683594 " fill-opacity="1" fill-rule="nonzero"/><path fill="#ffffff" d="M 18.804688 13.648438 L 26.597656 13.648438 L 26.597656 15.375 L 18.804688 15.375 Z M 18.804688 13.648438 " fill-opacity="1" fill-rule="nonzero"/><path fill="#ffffff" d="M 15.695312 19.71875 L 29.707031 19.71875 L 29.707031 21.445312 L 15.695312 21.445312 Z M 15.695312 19.71875 " fill-opacity="1" fill-rule="nonzero"/><g clip-path="url(#c3811e8828)"><path fill="#ffffff" d="M 23.863281 38.089844 L 12.027344 38.089844 C 11.546875 38.089844 11.164062 37.703125 11.164062 37.226562 L 11.164062 9.871094 C 11.164062 9.394531 11.546875 9.007812 12.027344 9.007812 L 33.375 9.007812 C 33.851562 9.007812 34.238281 9.394531 34.238281 9.871094 L 34.238281 23.550781 L 32.511719 23.550781 L 32.511719 10.734375 L 12.890625 10.734375 L 12.890625 36.363281 L 23.863281 36.363281 Z M 23.863281 38.089844 " fill-opacity="1" fill-rule="nonzero"/></g></svg>