<svg xmlns="http://www.w3.org/2000/svg" xmlns:xlink="http://www.w3.org/1999/xlink" width="34" zoomAndPan="magnify" viewBox="0 0 25.5 26.249999" height="35" preserveAspectRatio="xMidYMid meet" version="1.0"><defs><clipPath id="37c1350b0e"><path d="M 0.132812 1.28125 L 24.195312 1.28125 L 24.195312 25.34375 L 0.132812 25.34375 Z M 0.132812 1.28125 " clip-rule="nonzero"/></clipPath><clipPath id="b7e6a2d1c4"><path d="M 0.109375 0 L 24.171875 0 L 24.171875 24 L 0.109375 24 Z M 0.109375 0 " clip-rule="nonzero"/></clipPath></defs><g clip-path="url(#37c1350b0e)"><path fill="#69698f" d="M 24.207031 13.320312 C 24.207031 6.671875 18.820312 1.28125 12.171875 1.28125 C 5.523438 1.28125 0.132812 6.671875 0.132812 13.320312 C 0.132812 18.964844 4.019531 23.699219 9.261719 25 L 9.261719 16.996094 L 6.78125 16.996094 L 6.78125 13.320312 L 9.261719 13.320312 L 9.261719 11.734375 C 9.261719 7.636719 11.117188 5.738281 15.140625 5.738281 C 15.902344 5.738281 17.21875 5.886719 17.753906 6.039062 L 17.753906 9.371094 C 17.472656 9.339844 16.976562 9.324219 16.363281 9.324219 C 14.390625 9.324219 13.628906 10.074219 13.628906 12.015625 L 13.628906 13.316406 L 17.558594 13.316406 L 16.886719 16.996094 L 13.628906 16.996094 L 13.628906 25.265625 C 19.589844 24.546875 24.207031 19.472656 24.207031 13.316406 Z M 24.207031 13.320312 " fill-opacity="1" fill-rule="nonzero"/></g><g clip-path="url(#b7e6a2d1c4)"><path fill="#69698f" d="M 24.1875 12.035156 C 24.1875 5.386719 18.796875 0 12.148438 0 C 5.503906 0 0.113281 5.386719 0.113281 12.035156 C 0.113281 17.679688 4 22.417969 9.242188 23.71875 L 9.242188 15.714844 L 6.757812 15.714844 L 6.757812 12.035156 L 9.242188 12.035156 L 9.242188 10.453125 C 9.242188 6.355469 11.097656 4.457031 15.117188 4.457031 C 15.878906 4.457031 17.195312 4.605469 17.734375 4.753906 L 17.734375 8.089844 C 17.449219 8.058594 16.957031 8.042969 16.34375 8.042969 C 14.371094 8.042969 13.609375 8.792969 13.609375 10.734375 L 13.609375 12.035156 L 17.539062 12.035156 L 16.863281 15.714844 L 13.609375 15.714844 L 13.609375 23.984375 C 19.566406 23.265625 24.1875 18.1875 24.1875 12.035156 Z M 24.1875 12.035156 " fill-opacity="1" fill-rule="nonzero"/></g></svg>