<svg xmlns="http://www.w3.org/2000/svg" xmlns:xlink="http://www.w3.org/1999/xlink" width="39" zoomAndPan="magnify" viewBox="0 0 29.25 28.5" height="38" preserveAspectRatio="xMidYMid meet" version="1.0"><defs><clipPath id="f662f0c9dd"><path d="M 0 0.113281 L 27 0.113281 L 27 26.4375 L 0 26.4375 Z M 0 0.113281 " clip-rule="nonzero"/></clipPath><clipPath id="30a8081c8d"><path d="M 0 1 L 27 1 L 27 27.25 L 0 27.25 Z M 0 1 " clip-rule="nonzero"/></clipPath></defs><g clip-path="url(#f662f0c9dd)"><path fill="#69698f" d="M 1.238281 18.128906 C 2.859375 22.785156 7.148438 25.976562 12.070312 26.320312 C 17.992188 26.734375 23.273438 24.082031 25.453125 19.816406 C 28.316406 14.21875 24.75 7.957031 24.460938 7.460938 C 24.207031 7.035156 20.800781 1.460938 14.191406 0.617188 C 12.972656 0.460938 9.859375 0.113281 6.71875 1.875 C 3.796875 3.511719 1.679688 6.488281 0.957031 10.339844 C 0.738281 11.5 0.0078125 14.453125 1.179688 17.964844 C 1.199219 18.019531 1.21875 18.074219 1.238281 18.128906 Z M 1.238281 18.128906 " fill-opacity="1" fill-rule="nonzero"/></g><path fill="#ffffff" d="M 8.519531 16.269531 C 8.527344 17.175781 8.519531 18.050781 8.601562 18.933594 C 8.730469 20.386719 9.261719 21.203125 10.730469 20.789062 C 11.671875 20.523438 12.613281 19.988281 13.539062 19.457031 C 14.496094 18.894531 15.390625 18.320312 16.3125 17.710938 C 16.984375 17.261719 17.675781 16.789062 18.3125 16.304688 C 19.023438 15.761719 20.109375 15.097656 20.40625 14.476562 C 20.765625 13.789062 20.507812 13.097656 20.066406 12.511719 C 19.496094 11.75 18.4375 11.078125 17.695312 10.484375 C 16.539062 9.570312 15.285156 8.757812 14.03125 7.9375 C 12.933594 7.246094 11.902344 6.539062 10.820312 6.125 C 10.621094 6.054688 10.429688 6.003906 10.234375 5.980469 C 9.425781 5.871094 8.980469 6.546875 8.824219 7.425781 C 8.648438 8.292969 8.609375 9.15625 8.570312 10.140625 C 8.503906 12.195312 8.527344 14.230469 8.519531 16.261719 Z M 8.519531 16.269531 " fill-opacity="1" fill-rule="nonzero"/><g clip-path="url(#30a8081c8d)"><path fill="#69698f" d="M 1.238281 18.941406 C 2.859375 23.597656 7.148438 26.789062 12.070312 27.132812 C 17.992188 27.546875 23.273438 24.894531 25.453125 20.628906 C 28.316406 15.03125 24.75 8.769531 24.460938 8.273438 C 24.207031 7.847656 20.800781 2.277344 14.191406 1.429688 C 12.972656 1.273438 9.859375 0.925781 6.71875 2.6875 C 3.796875 4.324219 1.679688 7.300781 0.957031 11.152344 C 0.738281 12.316406 0.0078125 15.265625 1.179688 18.777344 C 1.199219 18.832031 1.21875 18.886719 1.238281 18.941406 Z M 1.238281 18.941406 " fill-opacity="1" fill-rule="nonzero"/></g><path fill="#ffffff" d="M 8.519531 17.082031 C 8.527344 17.988281 8.519531 18.863281 8.601562 19.746094 C 8.730469 21.199219 9.261719 22.015625 10.730469 21.601562 C 11.671875 21.335938 12.613281 20.800781 13.539062 20.269531 C 14.496094 19.707031 15.390625 19.132812 16.3125 18.523438 C 16.984375 18.074219 17.675781 17.601562 18.3125 17.117188 C 19.023438 16.574219 20.109375 15.914062 20.40625 15.292969 C 20.765625 14.601562 20.507812 13.914062 20.066406 13.324219 C 19.496094 12.566406 18.4375 11.890625 17.695312 11.296875 C 16.539062 10.382812 15.285156 9.574219 14.03125 8.753906 C 12.933594 8.058594 11.902344 7.351562 10.820312 6.9375 C 10.621094 6.867188 10.429688 6.816406 10.234375 6.796875 C 9.425781 6.683594 8.980469 7.359375 8.824219 8.238281 C 8.648438 9.105469 8.609375 9.972656 8.570312 10.953125 C 8.503906 13.007812 8.527344 15.042969 8.519531 17.074219 Z M 8.519531 17.082031 " fill-opacity="1" fill-rule="nonzero"/></svg>