<svg xmlns="http://www.w3.org/2000/svg" xmlns:xlink="http://www.w3.org/1999/xlink" width="34" zoomAndPan="magnify" viewBox="0 0 25.5 26.249999" height="35" preserveAspectRatio="xMidYMid meet" version="1.0"><defs><clipPath id="27f9627d88"><path d="M 0.109375 0 L 24.171875 0 L 24.171875 24.0625 L 0.109375 24.0625 Z M 0.109375 0 " clip-rule="nonzero"/></clipPath><clipPath id="c9f58e7305"><path d="M 0.140625 0.8125 L 24.203125 0.8125 L 24.203125 24.875 L 0.140625 24.875 Z M 0.140625 0.8125 " clip-rule="nonzero"/></clipPath></defs><g clip-path="url(#27f9627d88)"><path fill="#69698f" d="M 12.289062 0 C 19.015625 0 24.46875 5.453125 24.46875 12.179688 C 24.46875 18.90625 19.015625 24.359375 12.289062 24.359375 C 5.5625 24.359375 0.109375 18.90625 0.109375 12.179688 C 0.109375 5.453125 5.5625 0 12.289062 0 Z M 12.289062 0 " fill-opacity="1" fill-rule="evenodd"/></g><path fill="#ffffff" d="M 9.496094 9.617188 C 9.984375 9.25 9.742188 9.429688 10.230469 9.0625 C 10.660156 8.742188 10.542969 8.421875 10.175781 7.914062 C 9.425781 6.871094 9.171875 6.492188 8.425781 5.449219 C 7.984375 4.828125 7.402344 5.3125 7.25 5.46875 C 3.320312 9.480469 5.847656 12.578125 9.003906 15.734375 C 12.007812 18.738281 15.121094 21.03125 19.007812 17.226562 C 19.164062 17.074219 19.648438 16.492188 19.027344 16.050781 C 17.984375 15.304688 17.605469 15.050781 16.5625 14.300781 C 16.054688 13.933594 15.734375 13.816406 15.414062 14.246094 C 15.046875 14.734375 15.226562 14.492188 14.859375 14.980469 C 14.355469 15.65625 13.4375 16.46875 10.890625 13.863281 C 7.941406 10.851562 8.789062 10.140625 9.496094 9.617188 Z M 9.496094 9.617188 " fill-opacity="1" fill-rule="evenodd"/><g clip-path="url(#c9f58e7305)"><path fill="#69698f" d="M 12.320312 0.8125 C 19.046875 0.8125 24.5 6.265625 24.5 12.992188 C 24.5 19.71875 19.046875 25.167969 12.320312 25.167969 C 5.59375 25.167969 0.140625 19.71875 0.140625 12.992188 C 0.140625 6.265625 5.59375 0.8125 12.320312 0.8125 Z M 12.320312 0.8125 " fill-opacity="1" fill-rule="evenodd"/></g><path fill="#ffffff" d="M 9.523438 10.429688 C 10.015625 10.0625 9.773438 10.242188 10.261719 9.875 C 10.691406 9.554688 10.574219 9.234375 10.207031 8.726562 C 9.457031 7.683594 9.203125 7.304688 8.457031 6.257812 C 8.015625 5.636719 7.433594 6.121094 7.28125 6.277344 C 3.351562 10.292969 5.878906 13.390625 9.035156 16.546875 C 12.039062 19.550781 15.152344 21.84375 19.039062 18.035156 C 19.195312 17.882812 19.679688 17.304688 19.058594 16.859375 C 18.015625 16.113281 17.632812 15.859375 16.59375 15.109375 C 16.082031 14.742188 15.765625 14.625 15.441406 15.054688 C 15.078125 15.542969 15.257812 15.304688 14.886719 15.792969 C 14.386719 16.46875 13.46875 17.28125 10.921875 14.675781 C 7.972656 11.660156 8.820312 10.953125 9.523438 10.429688 Z M 9.523438 10.429688 " fill-opacity="1" fill-rule="evenodd"/></svg>