<svg xmlns="http://www.w3.org/2000/svg" xmlns:xlink="http://www.w3.org/1999/xlink" width="18" zoomAndPan="magnify" viewBox="0 0 13.5 13.5" height="18" preserveAspectRatio="xMidYMid meet" version="1.0"><defs><clipPath id="38ae2af19c"><path d="M 0 0.484375 L 12 0.484375 L 12 12.78125 L 0 12.78125 Z M 0 0.484375 " clip-rule="nonzero"/></clipPath><clipPath id="f8e62d223a"><path d="M 0.566406 0 L 12.859375 0 L 12.859375 12 L 0.566406 12 Z M 0.566406 0 " clip-rule="nonzero"/></clipPath></defs><g clip-path="url(#38ae2af19c)"><path fill="#a1a1a1" d="M 5.972656 0.484375 C 2.679688 0.484375 0 3.164062 0 6.457031 C 0 9.753906 2.679688 12.429688 5.972656 12.429688 C 9.265625 12.429688 11.945312 9.753906 11.945312 6.457031 C 11.945312 3.164062 9.261719 0.484375 5.972656 0.484375 Z M 5.972656 11.121094 C 3.398438 11.121094 1.304688 9.027344 1.304688 6.457031 C 1.304688 3.886719 3.398438 1.792969 5.972656 1.792969 C 8.546875 1.792969 10.640625 3.882812 10.640625 6.457031 C 10.640625 9.03125 8.542969 11.121094 5.972656 11.121094 Z M 5.972656 11.121094 " fill-opacity="1" fill-rule="nonzero"/></g><path fill="#a1a1a1" d="M 3.769531 6.457031 C 3.769531 7.671875 4.761719 8.660156 5.972656 8.660156 C 6.5625 8.660156 7.113281 8.429688 7.527344 8.011719 L 8.453125 8.933594 C 7.792969 9.597656 6.910156 9.960938 5.972656 9.960938 C 4.039062 9.960938 2.464844 8.386719 2.464844 6.453125 C 2.464844 4.523438 4.039062 2.949219 5.972656 2.949219 C 6.910156 2.949219 7.789062 3.3125 8.453125 3.972656 L 7.527344 4.894531 C 7.113281 4.480469 6.5625 4.25 5.972656 4.25 C 4.757812 4.257812 3.769531 5.242188 3.769531 6.457031 Z M 3.769531 6.457031 " fill-opacity="1" fill-rule="nonzero"/><g clip-path="url(#f8e62d223a)"><path fill="#a1a1a1" d="M 6.539062 0 C 3.246094 0 0.566406 2.679688 0.566406 5.972656 C 0.566406 9.265625 3.246094 11.945312 6.539062 11.945312 C 9.832031 11.945312 12.511719 9.265625 12.511719 5.972656 C 12.511719 2.679688 9.828125 0 6.539062 0 Z M 6.539062 10.636719 C 3.964844 10.636719 1.871094 8.542969 1.871094 5.972656 C 1.871094 3.402344 3.964844 1.304688 6.539062 1.304688 C 9.113281 1.304688 11.207031 3.398438 11.207031 5.972656 C 11.207031 8.546875 9.109375 10.636719 6.539062 10.636719 Z M 6.539062 10.636719 " fill-opacity="1" fill-rule="nonzero"/></g><path fill="#a1a1a1" d="M 4.335938 5.972656 C 4.335938 7.183594 5.328125 8.171875 6.539062 8.171875 C 7.128906 8.171875 7.679688 7.945312 8.09375 7.527344 L 9.019531 8.449219 C 8.359375 9.113281 7.476562 9.476562 6.539062 9.476562 C 4.605469 9.476562 3.03125 7.902344 3.03125 5.96875 C 3.03125 4.035156 4.605469 2.460938 6.539062 2.460938 C 7.476562 2.460938 8.355469 2.828125 9.019531 3.488281 L 8.09375 4.410156 C 7.679688 3.996094 7.128906 3.765625 6.539062 3.765625 C 5.324219 3.769531 4.335938 4.757812 4.335938 5.972656 Z M 4.335938 5.972656 " fill-opacity="1" fill-rule="nonzero"/></svg>