<svg xmlns="http://www.w3.org/2000/svg" xmlns:xlink="http://www.w3.org/1999/xlink" width="69" zoomAndPan="magnify" viewBox="0 0 51.75 51.749998" height="69" preserveAspectRatio="xMidYMid meet" version="1.0"><defs><clipPath id="8c0a4489ca"><path d="M 0 0 L 51.34375 0 L 51.34375 51.34375 L 0 51.34375 Z M 0 0 " clip-rule="nonzero"/></clipPath><clipPath id="011991e0b7"><path d="M 25.671875 0 C 11.492188 0 0 11.492188 0 25.671875 C 0 39.851562 11.492188 51.34375 25.671875 51.34375 C 39.851562 51.34375 51.34375 39.851562 51.34375 25.671875 C 51.34375 11.492188 39.851562 0 25.671875 0 Z M 25.671875 0 " clip-rule="nonzero"/></clipPath><clipPath id="d82d0a0e02"><path d="M 0 0 L 51.34375 0 L 51.34375 51.34375 L 0 51.34375 Z M 0 0 " clip-rule="nonzero"/></clipPath><clipPath id="d33f774822"><path d="M 25.671875 0 C 11.492188 0 0 11.492188 0 25.671875 C 0 39.851562 11.492188 51.34375 25.671875 51.34375 C 39.851562 51.34375 51.34375 39.851562 51.34375 25.671875 C 51.34375 11.492188 39.851562 0 25.671875 0 Z M 25.671875 0 " clip-rule="nonzero"/></clipPath><clipPath id="6f88d71f65"><rect x="0" width="52" y="0" height="52"/></clipPath><clipPath id="4696f2009e"><path d="M 2.183594 2.183594 L 49.160156 2.183594 L 49.160156 49.160156 L 2.183594 49.160156 Z M 2.183594 2.183594 " clip-rule="nonzero"/></clipPath><clipPath id="762aace996"><path d="M 25.671875 2.183594 C 12.699219 2.183594 2.183594 12.699219 2.183594 25.671875 C 2.183594 38.644531 12.699219 49.160156 25.671875 49.160156 C 38.644531 49.160156 49.160156 38.644531 49.160156 25.671875 C 49.160156 12.699219 38.644531 2.183594 25.671875 2.183594 Z M 25.671875 2.183594 " clip-rule="nonzero"/></clipPath><clipPath id="c4b351ede1"><path d="M 0.183594 0.183594 L 47.160156 0.183594 L 47.160156 47.160156 L 0.183594 47.160156 Z M 0.183594 0.183594 " clip-rule="nonzero"/></clipPath><clipPath id="c52c33845b"><path d="M 23.671875 0.183594 C 10.699219 0.183594 0.183594 10.699219 0.183594 23.671875 C 0.183594 36.644531 10.699219 47.160156 23.671875 47.160156 C 36.644531 47.160156 47.160156 36.644531 47.160156 23.671875 C 47.160156 10.699219 36.644531 0.183594 23.671875 0.183594 Z M 23.671875 0.183594 " clip-rule="nonzero"/></clipPath><clipPath id="06351fe0a0"><rect x="0" width="48" y="0" height="48"/></clipPath><clipPath id="04b6477baa"><path d="M 10.203125 9.996094 L 41.550781 9.996094 L 41.550781 41.347656 L 10.203125 41.347656 Z M 10.203125 9.996094 " clip-rule="nonzero"/></clipPath></defs><g clip-path="url(#8c0a4489ca)"><g clip-path="url(#011991e0b7)"><g><g clip-path="url(#6f88d71f65)"><g clip-path="url(#d82d0a0e02)"><g clip-path="url(#d33f774822)"><path fill="#fdfdfd" d="M 0 0 L 51.34375 0 L 51.34375 51.34375 L 0 51.34375 Z M 0 0 " fill-opacity="1" fill-rule="nonzero"/></g></g></g></g></g></g><g clip-path="url(#4696f2009e)"><g clip-path="url(#762aace996)"><g transform="matrix(1, 0, 0, 1, 2, 2)"><g clip-path="url(#06351fe0a0)"><g clip-path="url(#c4b351ede1)"><g clip-path="url(#c52c33845b)"><path fill="#4b548b" d="M 0.183594 0.183594 L 47.160156 0.183594 L 47.160156 47.160156 L 0.183594 47.160156 Z M 0.183594 0.183594 " fill-opacity="1" fill-rule="nonzero"/></g></g></g></g></g></g><g clip-path="url(#04b6477baa)"><path fill="#ffffff" d="M 25.867188 9.996094 C 17.207031 9.996094 10.203125 17.011719 10.203125 25.671875 C 10.203125 34.332031 17.207031 41.347656 25.867188 41.347656 C 34.527344 41.347656 41.550781 34.332031 41.550781 25.671875 C 41.550781 17.011719 34.527344 9.996094 25.867188 9.996094 Z M 25.875 38.210938 C 18.949219 38.210938 13.335938 32.601562 13.335938 25.671875 C 13.335938 18.742188 18.949219 13.132812 25.875 13.132812 C 32.804688 13.132812 38.414062 18.742188 38.414062 25.671875 C 38.414062 32.601562 32.804688 38.210938 25.875 38.210938 Z M 25.875 38.210938 " fill-opacity="1" fill-rule="nonzero"/></g><path fill="#ffffff" d="M 26.660156 17.835938 L 24.308594 17.835938 L 24.308594 27.238281 L 32.53125 32.175781 L 33.714844 30.25 L 26.660156 26.0625 Z M 26.660156 17.835938 " fill-opacity="1" fill-rule="nonzero"/></svg>