<svg xmlns="http://www.w3.org/2000/svg" xmlns:xlink="http://www.w3.org/1999/xlink" width="46" zoomAndPan="magnify" viewBox="0 0 34.5 34.5" height="46" preserveAspectRatio="xMidYMid meet" version="1.0"><defs><clipPath id="9cd315d465"><path d="M 0 0.21875 L 33.269531 0.21875 L 33.269531 33.484375 L 0 33.484375 Z M 0 0.21875 " clip-rule="nonzero"/></clipPath><clipPath id="8f748a1f0a"><path d="M 0 0 L 33.269531 0 L 33.269531 33.269531 L 0 33.269531 Z M 0 0 " clip-rule="nonzero"/></clipPath></defs><g clip-path="url(#9cd315d465)"><path fill="#060644" d="M 33.390625 16.910156 C 33.390625 17.457031 33.363281 18.003906 33.308594 18.546875 C 33.253906 19.09375 33.175781 19.632812 33.070312 20.167969 C 32.960938 20.707031 32.828125 21.234375 32.671875 21.757812 C 32.511719 22.28125 32.328125 22.796875 32.117188 23.300781 C 31.910156 23.804688 31.675781 24.300781 31.417969 24.78125 C 31.160156 25.265625 30.878906 25.730469 30.574219 26.1875 C 30.273438 26.640625 29.945312 27.082031 29.601562 27.503906 C 29.253906 27.925781 28.886719 28.332031 28.5 28.71875 C 28.113281 29.101562 27.707031 29.46875 27.285156 29.816406 C 26.863281 30.164062 26.425781 30.488281 25.96875 30.792969 C 25.515625 31.097656 25.046875 31.378906 24.566406 31.636719 C 24.082031 31.894531 23.589844 32.125 23.082031 32.335938 C 22.578125 32.546875 22.0625 32.730469 21.542969 32.886719 C 21.019531 33.046875 20.488281 33.179688 19.953125 33.285156 C 19.414062 33.390625 18.875 33.472656 18.332031 33.527344 C 17.785156 33.578125 17.242188 33.605469 16.695312 33.605469 C 16.148438 33.605469 15.601562 33.578125 15.058594 33.527344 C 14.515625 33.472656 13.972656 33.390625 13.4375 33.285156 C 12.902344 33.179688 12.371094 33.046875 11.847656 32.886719 C 11.324219 32.730469 10.8125 32.546875 10.304688 32.335938 C 9.800781 32.125 9.308594 31.894531 8.824219 31.636719 C 8.34375 31.378906 7.875 31.097656 7.417969 30.792969 C 6.964844 30.488281 6.527344 30.164062 6.105469 29.816406 C 5.679688 29.46875 5.277344 29.101562 4.890625 28.71875 C 4.503906 28.332031 4.136719 27.925781 3.789062 27.503906 C 3.441406 27.082031 3.117188 26.640625 2.8125 26.1875 C 2.511719 25.730469 2.230469 25.265625 1.972656 24.78125 C 1.714844 24.300781 1.480469 23.804688 1.269531 23.300781 C 1.0625 22.796875 0.878906 22.28125 0.71875 21.757812 C 0.558594 21.234375 0.425781 20.707031 0.320312 20.167969 C 0.214844 19.632812 0.132812 19.09375 0.0820312 18.546875 C 0.0273438 18.003906 0 17.457031 0 16.910156 C 0 16.363281 0.0273438 15.820312 0.0820312 15.277344 C 0.132812 14.730469 0.214844 14.191406 0.320312 13.65625 C 0.425781 13.117188 0.558594 12.589844 0.71875 12.066406 C 0.878906 11.542969 1.0625 11.027344 1.269531 10.523438 C 1.480469 10.019531 1.714844 9.523438 1.972656 9.042969 C 2.230469 8.558594 2.511719 8.089844 2.8125 7.636719 C 3.117188 7.183594 3.441406 6.742188 3.789062 6.320312 C 4.136719 5.898438 4.503906 5.492188 4.890625 5.105469 C 5.277344 4.71875 5.679688 4.351562 6.105469 4.007812 C 6.527344 3.660156 6.964844 3.335938 7.417969 3.03125 C 7.875 2.726562 8.34375 2.445312 8.824219 2.1875 C 9.308594 1.929688 9.800781 1.695312 10.304688 1.488281 C 10.8125 1.277344 11.324219 1.09375 11.847656 0.9375 C 12.371094 0.777344 12.902344 0.644531 13.4375 0.539062 C 13.972656 0.429688 14.515625 0.351562 15.058594 0.296875 C 15.601562 0.242188 16.148438 0.21875 16.695312 0.21875 C 17.242188 0.21875 17.785156 0.242188 18.332031 0.296875 C 18.875 0.351562 19.414062 0.429688 19.953125 0.539062 C 20.488281 0.644531 21.019531 0.777344 21.542969 0.9375 C 22.0625 1.09375 22.578125 1.277344 23.082031 1.488281 C 23.589844 1.695312 24.082031 1.929688 24.566406 2.1875 C 25.046875 2.445312 25.515625 2.726562 25.96875 3.03125 C 26.425781 3.335938 26.863281 3.660156 27.285156 4.007812 C 27.707031 4.351562 28.113281 4.71875 28.5 5.105469 C 28.886719 5.492188 29.253906 5.898438 29.601562 6.320312 C 29.945312 6.742188 30.273438 7.183594 30.574219 7.636719 C 30.878906 8.089844 31.160156 8.558594 31.417969 9.042969 C 31.675781 9.523438 31.910156 10.019531 32.117188 10.523438 C 32.328125 11.027344 32.511719 11.542969 32.671875 12.066406 C 32.828125 12.589844 32.960938 13.117188 33.070312 13.65625 C 33.175781 14.191406 33.253906 14.730469 33.308594 15.277344 C 33.363281 15.820312 33.390625 16.363281 33.390625 16.910156 Z M 33.390625 16.910156 " fill-opacity="1" fill-rule="nonzero"/></g><path fill="#ffffff" d="M 21.382812 13.160156 C 21.382812 13.46875 21.355469 13.773438 21.292969 14.074219 C 21.234375 14.378906 21.144531 14.671875 21.027344 14.957031 C 20.910156 15.242188 20.765625 15.511719 20.59375 15.765625 C 20.421875 16.023438 20.230469 16.257812 20.011719 16.476562 C 19.792969 16.695312 19.554688 16.890625 19.300781 17.058594 C 19.042969 17.230469 18.773438 17.375 18.488281 17.492188 C 18.203125 17.613281 17.910156 17.699219 17.609375 17.761719 C 17.308594 17.820312 17.003906 17.851562 16.695312 17.851562 C 16.386719 17.851562 16.082031 17.820312 15.78125 17.761719 C 15.476562 17.699219 15.183594 17.613281 14.898438 17.492188 C 14.617188 17.375 14.34375 17.230469 14.089844 17.058594 C 13.832031 16.890625 13.597656 16.695312 13.378906 16.476562 C 13.160156 16.257812 12.964844 16.023438 12.796875 15.765625 C 12.625 15.511719 12.480469 15.242188 12.363281 14.957031 C 12.246094 14.671875 12.15625 14.378906 12.09375 14.074219 C 12.035156 13.773438 12.003906 13.46875 12.003906 13.160156 C 12.003906 12.851562 12.035156 12.546875 12.09375 12.246094 C 12.15625 11.945312 12.246094 11.652344 12.363281 11.367188 C 12.480469 11.082031 12.625 10.8125 12.796875 10.554688 C 12.964844 10.300781 13.160156 10.0625 13.378906 9.84375 C 13.597656 9.628906 13.832031 9.433594 14.089844 9.261719 C 14.34375 9.089844 14.617188 8.945312 14.898438 8.828125 C 15.183594 8.710938 15.476562 8.621094 15.78125 8.5625 C 16.082031 8.5 16.386719 8.472656 16.695312 8.472656 C 17.003906 8.472656 17.308594 8.5 17.609375 8.5625 C 17.910156 8.621094 18.203125 8.710938 18.488281 8.828125 C 18.773438 8.945312 19.042969 9.089844 19.300781 9.261719 C 19.554688 9.433594 19.792969 9.628906 20.011719 9.84375 C 20.230469 10.0625 20.421875 10.300781 20.59375 10.554688 C 20.765625 10.8125 20.910156 11.082031 21.027344 11.367188 C 21.144531 11.652344 21.234375 11.945312 21.292969 12.246094 C 21.355469 12.546875 21.382812 12.851562 21.382812 13.160156 Z M 21.382812 13.160156 " fill-opacity="1" fill-rule="nonzero"/><path fill="#ffffff" d="M 26.621094 24.851562 C 26.621094 25.195312 26.554688 25.535156 26.429688 25.871094 C 26.300781 26.207031 26.113281 26.53125 25.863281 26.847656 C 25.613281 27.164062 25.308594 27.464844 24.945312 27.75 C 24.585938 28.035156 24.171875 28.300781 23.710938 28.542969 C 23.253906 28.785156 22.75 29 22.207031 29.191406 C 21.667969 29.382812 21.09375 29.542969 20.492188 29.671875 C 19.890625 29.804688 19.269531 29.902344 18.632812 29.96875 C 17.992188 30.039062 17.347656 30.070312 16.695312 30.070312 C 16.042969 30.070312 15.398438 30.039062 14.757812 29.96875 C 14.121094 29.902344 13.5 29.804688 12.898438 29.671875 C 12.292969 29.542969 11.722656 29.382812 11.179688 29.191406 C 10.640625 29 10.136719 28.785156 9.675781 28.542969 C 9.214844 28.300781 8.804688 28.035156 8.441406 27.75 C 8.082031 27.464844 7.773438 27.164062 7.523438 26.847656 C 7.277344 26.53125 7.085938 26.207031 6.960938 25.871094 C 6.832031 25.535156 6.769531 25.195312 6.769531 24.851562 C 6.769531 24.507812 6.832031 24.167969 6.960938 23.832031 C 7.085938 23.496094 7.277344 23.171875 7.523438 22.855469 C 7.773438 22.539062 8.082031 22.238281 8.441406 21.953125 C 8.804688 21.667969 9.214844 21.402344 9.675781 21.160156 C 10.136719 20.917969 10.640625 20.703125 11.179688 20.511719 C 11.722656 20.320312 12.292969 20.160156 12.898438 20.03125 C 13.5 19.898438 14.121094 19.800781 14.757812 19.734375 C 15.398438 19.664062 16.042969 19.632812 16.695312 19.632812 C 17.347656 19.632812 17.992188 19.664062 18.632812 19.734375 C 19.269531 19.800781 19.890625 19.898438 20.492188 20.03125 C 21.09375 20.160156 21.667969 20.320312 22.207031 20.511719 C 22.75 20.703125 23.253906 20.917969 23.710938 21.160156 C 24.171875 21.402344 24.585938 21.667969 24.945312 21.953125 C 25.308594 22.238281 25.613281 22.539062 25.863281 22.855469 C 26.113281 23.171875 26.300781 23.496094 26.429688 23.832031 C 26.554688 24.167969 26.621094 24.507812 26.621094 24.851562 Z M 26.621094 24.851562 " fill-opacity="1" fill-rule="nonzero"/><g clip-path="url(#8f748a1f0a)"><path fill="#060644" d="M 33.390625 16.695312 C 33.390625 17.242188 33.363281 17.785156 33.308594 18.328125 C 33.253906 18.875 33.175781 19.414062 33.070312 19.949219 C 32.960938 20.488281 32.828125 21.015625 32.671875 21.539062 C 32.511719 22.0625 32.328125 22.578125 32.117188 23.082031 C 31.910156 23.585938 31.675781 24.082031 31.417969 24.5625 C 31.160156 25.046875 30.878906 25.515625 30.574219 25.96875 C 30.273438 26.421875 29.945312 26.863281 29.601562 27.285156 C 29.253906 27.707031 28.886719 28.113281 28.5 28.5 C 28.113281 28.886719 27.707031 29.25 27.285156 29.597656 C 26.863281 29.945312 26.425781 30.269531 25.96875 30.574219 C 25.515625 30.878906 25.046875 31.160156 24.566406 31.417969 C 24.082031 31.675781 23.589844 31.910156 23.082031 32.117188 C 22.578125 32.328125 22.0625 32.511719 21.542969 32.667969 C 21.019531 32.828125 20.488281 32.960938 19.953125 33.066406 C 19.414062 33.175781 18.875 33.253906 18.332031 33.308594 C 17.785156 33.363281 17.242188 33.386719 16.695312 33.386719 C 16.148438 33.386719 15.601562 33.363281 15.058594 33.308594 C 14.515625 33.253906 13.972656 33.175781 13.4375 33.066406 C 12.902344 32.960938 12.371094 32.828125 11.847656 32.667969 C 11.324219 32.511719 10.8125 32.328125 10.304688 32.117188 C 9.800781 31.910156 9.308594 31.675781 8.824219 31.417969 C 8.34375 31.160156 7.875 30.878906 7.417969 30.574219 C 6.964844 30.269531 6.527344 29.945312 6.105469 29.597656 C 5.679688 29.25 5.277344 28.886719 4.890625 28.5 C 4.503906 28.113281 4.136719 27.707031 3.789062 27.285156 C 3.441406 26.863281 3.117188 26.421875 2.8125 25.96875 C 2.511719 25.515625 2.230469 25.046875 1.972656 24.5625 C 1.714844 24.082031 1.480469 23.585938 1.269531 23.082031 C 1.0625 22.578125 0.878906 22.0625 0.71875 21.539062 C 0.558594 21.015625 0.425781 20.488281 0.320312 19.949219 C 0.214844 19.414062 0.132812 18.875 0.0820312 18.328125 C 0.0273438 17.785156 0 17.242188 0 16.695312 C 0 16.148438 0.0273438 15.601562 0.0820312 15.058594 C 0.132812 14.511719 0.214844 13.972656 0.320312 13.4375 C 0.425781 12.898438 0.558594 12.371094 0.71875 11.847656 C 0.878906 11.324219 1.0625 10.808594 1.269531 10.304688 C 1.480469 9.800781 1.714844 9.304688 1.972656 8.824219 C 2.230469 8.339844 2.511719 7.871094 2.8125 7.417969 C 3.117188 6.964844 3.441406 6.523438 3.789062 6.101562 C 4.136719 5.679688 4.503906 5.273438 4.890625 4.886719 C 5.277344 4.5 5.679688 4.136719 6.105469 3.789062 C 6.527344 3.441406 6.964844 3.117188 7.417969 2.8125 C 7.875 2.507812 8.34375 2.226562 8.824219 1.96875 C 9.308594 1.710938 9.800781 1.480469 10.304688 1.269531 C 10.8125 1.058594 11.324219 0.875 11.847656 0.71875 C 12.371094 0.558594 12.902344 0.425781 13.4375 0.320312 C 13.972656 0.210938 14.515625 0.132812 15.058594 0.078125 C 15.601562 0.0273438 16.148438 0 16.695312 0 C 17.242188 0 17.785156 0.0273438 18.332031 0.078125 C 18.875 0.132812 19.414062 0.210938 19.953125 0.320312 C 20.488281 0.425781 21.019531 0.558594 21.542969 0.71875 C 22.0625 0.875 22.578125 1.058594 23.082031 1.269531 C 23.589844 1.480469 24.082031 1.710938 24.566406 1.96875 C 25.046875 2.226562 25.515625 2.507812 25.96875 2.8125 C 26.425781 3.117188 26.863281 3.441406 27.285156 3.789062 C 27.707031 4.136719 28.113281 4.5 28.5 4.886719 C 28.886719 5.273438 29.253906 5.679688 29.601562 6.101562 C 29.945312 6.523438 30.273438 6.964844 30.574219 7.417969 C 30.878906 7.871094 31.160156 8.339844 31.417969 8.824219 C 31.675781 9.304688 31.910156 9.800781 32.117188 10.304688 C 32.328125 10.808594 32.511719 11.324219 32.671875 11.847656 C 32.828125 12.371094 32.960938 12.898438 33.070312 13.4375 C 33.175781 13.972656 33.253906 14.511719 33.308594 15.058594 C 33.363281 15.601562 33.390625 16.148438 33.390625 16.695312 Z M 33.390625 16.695312 " fill-opacity="1" fill-rule="nonzero"/></g><path fill="#ffffff" d="M 21.382812 12.941406 C 21.382812 13.25 21.355469 13.554688 21.292969 13.859375 C 21.234375 14.160156 21.144531 14.453125 21.027344 14.738281 C 20.910156 15.023438 20.765625 15.292969 20.59375 15.546875 C 20.421875 15.804688 20.230469 16.042969 20.011719 16.257812 C 19.792969 16.476562 19.554688 16.671875 19.300781 16.84375 C 19.042969 17.011719 18.773438 17.15625 18.488281 17.277344 C 18.203125 17.394531 17.910156 17.480469 17.609375 17.542969 C 17.308594 17.601562 17.003906 17.632812 16.695312 17.632812 C 16.386719 17.632812 16.082031 17.601562 15.78125 17.542969 C 15.476562 17.480469 15.183594 17.394531 14.898438 17.277344 C 14.617188 17.15625 14.34375 17.011719 14.089844 16.84375 C 13.832031 16.671875 13.597656 16.476562 13.378906 16.257812 C 13.160156 16.042969 12.964844 15.804688 12.796875 15.546875 C 12.625 15.292969 12.480469 15.023438 12.363281 14.738281 C 12.246094 14.453125 12.15625 14.160156 12.09375 13.859375 C 12.035156 13.554688 12.003906 13.25 12.003906 12.941406 C 12.003906 12.636719 12.035156 12.328125 12.09375 12.027344 C 12.15625 11.726562 12.246094 11.433594 12.363281 11.148438 C 12.480469 10.863281 12.625 10.59375 12.796875 10.335938 C 12.964844 10.082031 13.160156 9.84375 13.378906 9.625 C 13.597656 9.410156 13.832031 9.214844 14.089844 9.042969 C 14.34375 8.871094 14.617188 8.726562 14.898438 8.609375 C 15.183594 8.492188 15.476562 8.402344 15.78125 8.34375 C 16.082031 8.28125 16.386719 8.253906 16.695312 8.253906 C 17.003906 8.253906 17.308594 8.28125 17.609375 8.34375 C 17.910156 8.402344 18.203125 8.492188 18.488281 8.609375 C 18.773438 8.726562 19.042969 8.871094 19.300781 9.042969 C 19.554688 9.214844 19.792969 9.410156 20.011719 9.625 C 20.230469 9.84375 20.421875 10.082031 20.59375 10.335938 C 20.765625 10.59375 20.910156 10.863281 21.027344 11.148438 C 21.144531 11.433594 21.234375 11.726562 21.292969 12.027344 C 21.355469 12.328125 21.382812 12.636719 21.382812 12.941406 Z M 21.382812 12.941406 " fill-opacity="1" fill-rule="nonzero"/><path fill="#ffffff" d="M 26.621094 24.632812 C 26.621094 24.976562 26.554688 25.316406 26.429688 25.652344 C 26.300781 25.988281 26.113281 26.3125 25.863281 26.628906 C 25.613281 26.945312 25.308594 27.246094 24.945312 27.53125 C 24.585938 27.816406 24.171875 28.082031 23.710938 28.324219 C 23.253906 28.566406 22.75 28.78125 22.207031 28.972656 C 21.667969 29.164062 21.09375 29.324219 20.492188 29.453125 C 19.890625 29.585938 19.269531 29.683594 18.632812 29.753906 C 17.992188 29.820312 17.347656 29.851562 16.695312 29.851562 C 16.042969 29.851562 15.398438 29.820312 14.757812 29.753906 C 14.121094 29.683594 13.5 29.585938 12.898438 29.453125 C 12.292969 29.324219 11.722656 29.164062 11.179688 28.972656 C 10.640625 28.78125 10.136719 28.566406 9.675781 28.324219 C 9.214844 28.082031 8.804688 27.816406 8.441406 27.53125 C 8.082031 27.246094 7.773438 26.945312 7.523438 26.628906 C 7.277344 26.3125 7.085938 25.988281 6.960938 25.652344 C 6.832031 25.316406 6.769531 24.976562 6.769531 24.632812 C 6.769531 24.289062 6.832031 23.953125 6.960938 23.613281 C 7.085938 23.277344 7.277344 22.953125 7.523438 22.636719 C 7.773438 22.320312 8.082031 22.019531 8.441406 21.734375 C 8.804688 21.449219 9.214844 21.183594 9.675781 20.941406 C 10.136719 20.699219 10.640625 20.484375 11.179688 20.292969 C 11.722656 20.101562 12.292969 19.941406 12.898438 19.8125 C 13.5 19.679688 14.121094 19.582031 14.757812 19.515625 C 15.398438 19.449219 16.042969 19.414062 16.695312 19.414062 C 17.347656 19.414062 17.992188 19.449219 18.632812 19.515625 C 19.269531 19.582031 19.890625 19.679688 20.492188 19.8125 C 21.09375 19.941406 21.667969 20.101562 22.207031 20.292969 C 22.75 20.484375 23.253906 20.699219 23.710938 20.941406 C 24.171875 21.183594 24.585938 21.449219 24.945312 21.734375 C 25.308594 22.019531 25.613281 22.320312 25.863281 22.636719 C 26.113281 22.953125 26.300781 23.277344 26.429688 23.613281 C 26.554688 23.953125 26.621094 24.289062 26.621094 24.632812 Z M 26.621094 24.632812 " fill-opacity="1" fill-rule="nonzero"/></svg>