<svg xmlns="http://www.w3.org/2000/svg" xmlns:xlink="http://www.w3.org/1999/xlink" width="25" zoomAndPan="magnify" viewBox="0 0 18.75 20.999999" height="28" preserveAspectRatio="xMidYMid meet" version="1.0"><defs><clipPath id="9c5d3f689f"><path d="M 0 0.136719 L 18.503906 0.136719 L 18.503906 20.121094 L 0 20.121094 Z M 0 0.136719 " clip-rule="nonzero"/></clipPath></defs><g clip-path="url(#9c5d3f689f)"><path fill="#000000" d="M 18.292969 18.945312 L 14.039062 13.414062 C 14.257812 13.179688 14.460938 12.933594 14.644531 12.675781 C 14.832031 12.417969 15 12.148438 15.152344 11.871094 C 15.304688 11.59375 15.4375 11.304688 15.550781 11.007812 C 15.664062 10.714844 15.757812 10.414062 15.835938 10.105469 C 15.910156 9.796875 15.964844 9.488281 16 9.171875 C 16.035156 8.859375 16.050781 8.542969 16.042969 8.226562 C 16.039062 7.910156 16.011719 7.597656 15.964844 7.285156 C 15.917969 6.972656 15.851562 6.664062 15.765625 6.359375 C 15.679688 6.054688 15.574219 5.753906 15.449219 5.464844 C 15.324219 5.171875 15.183594 4.890625 15.023438 4.617188 C 14.859375 4.34375 14.683594 4.082031 14.488281 3.828125 C 14.292969 3.578125 14.082031 3.339844 13.855469 3.113281 C 13.628906 2.890625 13.390625 2.679688 13.136719 2.484375 C 12.886719 2.289062 12.621094 2.109375 12.34375 1.949219 C 12.070312 1.785156 11.78125 1.640625 11.488281 1.515625 C 11.195312 1.390625 10.890625 1.28125 10.582031 1.191406 C 10.273438 1.105469 9.960938 1.035156 9.644531 0.984375 C 9.328125 0.9375 9.007812 0.90625 8.6875 0.898438 C 8.363281 0.886719 8.042969 0.898438 7.722656 0.925781 C 7.40625 0.957031 7.085938 1.007812 6.773438 1.078125 C 6.460938 1.148438 6.152344 1.238281 5.851562 1.34375 C 5.550781 1.453125 5.253906 1.582031 4.96875 1.726562 C 4.683594 1.871094 4.410156 2.03125 4.144531 2.210938 C 3.878906 2.390625 3.628906 2.585938 3.386719 2.796875 C 3.148438 3.007812 2.921875 3.234375 2.714844 3.472656 C 2.503906 3.710938 2.308594 3.964844 2.128906 4.226562 C 1.953125 4.488281 1.792969 4.761719 1.648438 5.046875 C 1.507812 5.328125 1.382812 5.621094 1.277344 5.917969 C 1.171875 6.21875 1.089844 6.523438 1.023438 6.832031 C 0.957031 7.140625 0.910156 7.453125 0.886719 7.769531 C 0.859375 8.085938 0.855469 8.398438 0.871094 8.714844 C 0.886719 9.03125 0.921875 9.34375 0.976562 9.65625 C 1.035156 9.96875 1.109375 10.273438 1.203125 10.578125 C 1.300781 10.878906 1.414062 11.171875 1.546875 11.460938 C 1.683594 11.746094 1.832031 12.027344 2.003906 12.292969 C 2.171875 12.5625 2.359375 12.820312 2.5625 13.066406 C 2.765625 13.3125 2.980469 13.542969 3.214844 13.761719 C 3.445312 13.980469 3.691406 14.183594 3.953125 14.371094 C 4.210938 14.558594 4.480469 14.726562 4.761719 14.882812 C 5.042969 15.035156 5.332031 15.171875 5.628906 15.289062 C 5.929688 15.40625 6.234375 15.503906 6.542969 15.585938 C 6.855469 15.664062 7.171875 15.722656 7.488281 15.765625 C 7.808594 15.804688 8.128906 15.824219 8.449219 15.824219 C 8.769531 15.824219 9.089844 15.804688 9.410156 15.765625 C 9.730469 15.726562 10.042969 15.664062 10.355469 15.585938 C 10.667969 15.507812 10.972656 15.410156 11.269531 15.292969 C 11.570312 15.175781 11.859375 15.039062 12.140625 14.886719 C 12.421875 14.730469 12.691406 14.5625 12.949219 14.375 L 17.128906 19.8125 C 17.25 19.96875 17.414062 20.0625 17.613281 20.089844 C 17.816406 20.117188 17.996094 20.074219 18.160156 19.953125 C 18.320312 19.832031 18.414062 19.671875 18.441406 19.476562 C 18.472656 19.277344 18.425781 19.101562 18.300781 18.941406 Z M 2.09375 8.359375 C 2.09375 7.945312 2.132812 7.539062 2.214844 7.136719 C 2.296875 6.734375 2.417969 6.34375 2.578125 5.960938 C 2.734375 5.582031 2.933594 5.222656 3.164062 4.882812 C 3.394531 4.539062 3.660156 4.222656 3.957031 3.933594 C 4.25 3.640625 4.574219 3.382812 4.917969 3.152344 C 5.265625 2.925781 5.632812 2.734375 6.019531 2.574219 C 6.40625 2.417969 6.804688 2.300781 7.214844 2.21875 C 7.625 2.140625 8.039062 2.097656 8.453125 2.097656 C 8.871094 2.097656 9.285156 2.140625 9.695312 2.21875 C 10.105469 2.300781 10.503906 2.417969 10.890625 2.574219 C 11.277344 2.734375 11.644531 2.925781 11.992188 3.152344 C 12.335938 3.382812 12.660156 3.640625 12.953125 3.933594 C 13.25 4.222656 13.515625 4.539062 13.746094 4.878906 C 13.976562 5.222656 14.175781 5.582031 14.332031 5.960938 C 14.492188 6.34375 14.613281 6.734375 14.695312 7.136719 C 14.777344 7.539062 14.816406 7.945312 14.816406 8.355469 C 14.816406 8.769531 14.777344 9.175781 14.695312 9.578125 C 14.613281 9.980469 14.492188 10.371094 14.332031 10.753906 C 14.171875 11.132812 13.976562 11.492188 13.746094 11.832031 C 13.511719 12.175781 13.25 12.492188 12.953125 12.78125 C 12.660156 13.074219 12.335938 13.332031 11.988281 13.558594 C 11.640625 13.789062 11.277344 13.980469 10.890625 14.136719 C 10.503906 14.296875 10.105469 14.414062 9.695312 14.496094 C 9.285156 14.574219 8.871094 14.613281 8.453125 14.613281 C 8.035156 14.613281 7.621094 14.574219 7.214844 14.492188 C 6.804688 14.414062 6.40625 14.296875 6.019531 14.136719 C 5.632812 13.980469 5.265625 13.789062 4.921875 13.558594 C 4.574219 13.332031 4.25 13.070312 3.957031 12.78125 C 3.660156 12.492188 3.398438 12.175781 3.164062 11.832031 C 2.933594 11.492188 2.738281 11.132812 2.578125 10.753906 C 2.417969 10.371094 2.296875 9.980469 2.214844 9.578125 C 2.132812 9.175781 2.09375 8.769531 2.09375 8.359375 Z M 2.09375 8.359375 " fill-opacity="1" fill-rule="nonzero"/><path fill="#000000" d="M 18.292969 18.945312 L 14.039062 13.414062 C 14.257812 13.179688 14.460938 12.933594 14.644531 12.675781 C 14.832031 12.417969 15 12.148438 15.152344 11.871094 C 15.304688 11.59375 15.4375 11.304688 15.550781 11.007812 C 15.664062 10.714844 15.757812 10.414062 15.835938 10.105469 C 15.910156 9.796875 15.964844 9.488281 16 9.171875 C 16.035156 8.859375 16.050781 8.542969 16.042969 8.226562 C 16.039062 7.910156 16.011719 7.597656 15.964844 7.285156 C 15.917969 6.972656 15.851562 6.664062 15.765625 6.359375 C 15.679688 6.054688 15.574219 5.753906 15.449219 5.464844 C 15.324219 5.171875 15.183594 4.890625 15.023438 4.617188 C 14.859375 4.34375 14.683594 4.082031 14.488281 3.828125 C 14.292969 3.578125 14.082031 3.339844 13.855469 3.113281 C 13.628906 2.890625 13.390625 2.679688 13.136719 2.484375 C 12.886719 2.289062 12.621094 2.109375 12.34375 1.949219 C 12.070312 1.785156 11.78125 1.640625 11.488281 1.515625 C 11.195312 1.390625 10.890625 1.28125 10.582031 1.191406 C 10.273438 1.105469 9.960938 1.035156 9.644531 0.984375 C 9.328125 0.9375 9.007812 0.90625 8.6875 0.898438 C 8.363281 0.886719 8.042969 0.898438 7.722656 0.925781 C 7.40625 0.957031 7.085938 1.007812 6.773438 1.078125 C 6.460938 1.148438 6.152344 1.238281 5.851562 1.34375 C 5.550781 1.453125 5.253906 1.582031 4.96875 1.726562 C 4.683594 1.871094 4.410156 2.03125 4.144531 2.210938 C 3.878906 2.390625 3.628906 2.585938 3.386719 2.796875 C 3.148438 3.007812 2.921875 3.234375 2.714844 3.472656 C 2.503906 3.710938 2.308594 3.964844 2.128906 4.226562 C 1.953125 4.488281 1.792969 4.761719 1.648438 5.046875 C 1.507812 5.328125 1.382812 5.621094 1.277344 5.917969 C 1.171875 6.21875 1.089844 6.523438 1.023438 6.832031 C 0.957031 7.140625 0.910156 7.453125 0.886719 7.769531 C 0.859375 8.085938 0.855469 8.398438 0.871094 8.714844 C 0.886719 9.03125 0.921875 9.34375 0.976562 9.65625 C 1.035156 9.96875 1.109375 10.273438 1.203125 10.578125 C 1.300781 10.878906 1.414062 11.171875 1.546875 11.460938 C 1.683594 11.746094 1.832031 12.027344 2.003906 12.292969 C 2.171875 12.5625 2.359375 12.820312 2.5625 13.066406 C 2.765625 13.3125 2.980469 13.542969 3.214844 13.761719 C 3.445312 13.980469 3.691406 14.183594 3.953125 14.371094 C 4.210938 14.558594 4.480469 14.726562 4.761719 14.882812 C 5.042969 15.035156 5.332031 15.171875 5.628906 15.289062 C 5.929688 15.40625 6.234375 15.503906 6.542969 15.585938 C 6.855469 15.664062 7.171875 15.722656 7.488281 15.765625 C 7.808594 15.804688 8.128906 15.824219 8.449219 15.824219 C 8.769531 15.824219 9.089844 15.804688 9.410156 15.765625 C 9.730469 15.726562 10.042969 15.664062 10.355469 15.585938 C 10.667969 15.507812 10.972656 15.410156 11.269531 15.292969 C 11.570312 15.175781 11.859375 15.039062 12.140625 14.886719 C 12.421875 14.730469 12.691406 14.5625 12.949219 14.375 L 17.128906 19.8125 C 17.25 19.96875 17.414062 20.0625 17.613281 20.089844 C 17.816406 20.117188 17.996094 20.074219 18.160156 19.953125 C 18.320312 19.832031 18.414062 19.671875 18.441406 19.476562 C 18.472656 19.277344 18.425781 19.101562 18.300781 18.941406 Z M 2.09375 8.359375 C 2.09375 7.945312 2.132812 7.539062 2.214844 7.136719 C 2.296875 6.734375 2.417969 6.34375 2.578125 5.960938 C 2.734375 5.582031 2.933594 5.222656 3.164062 4.882812 C 3.394531 4.539062 3.660156 4.222656 3.957031 3.933594 C 4.25 3.640625 4.574219 3.382812 4.917969 3.152344 C 5.265625 2.925781 5.632812 2.734375 6.019531 2.574219 C 6.40625 2.417969 6.804688 2.300781 7.214844 2.21875 C 7.625 2.140625 8.039062 2.097656 8.453125 2.097656 C 8.871094 2.097656 9.285156 2.140625 9.695312 2.21875 C 10.105469 2.300781 10.503906 2.417969 10.890625 2.574219 C 11.277344 2.734375 11.644531 2.925781 11.992188 3.152344 C 12.335938 3.382812 12.660156 3.640625 12.953125 3.933594 C 13.25 4.222656 13.515625 4.539062 13.746094 4.878906 C 13.976562 5.222656 14.175781 5.582031 14.332031 5.960938 C 14.492188 6.34375 14.613281 6.734375 14.695312 7.136719 C 14.777344 7.539062 14.816406 7.945312 14.816406 8.355469 C 14.816406 8.769531 14.777344 9.175781 14.695312 9.578125 C 14.613281 9.980469 14.492188 10.371094 14.332031 10.753906 C 14.171875 11.132812 13.976562 11.492188 13.746094 11.832031 C 13.511719 12.175781 13.25 12.492188 12.953125 12.78125 C 12.660156 13.074219 12.335938 13.332031 11.988281 13.558594 C 11.640625 13.789062 11.277344 13.980469 10.890625 14.136719 C 10.503906 14.296875 10.105469 14.414062 9.695312 14.496094 C 9.285156 14.574219 8.871094 14.613281 8.453125 14.613281 C 8.035156 14.613281 7.621094 14.574219 7.214844 14.492188 C 6.804688 14.414062 6.40625 14.296875 6.019531 14.136719 C 5.632812 13.980469 5.265625 13.789062 4.921875 13.558594 C 4.574219 13.332031 4.25 13.070312 3.957031 12.78125 C 3.660156 12.492188 3.398438 12.175781 3.164062 11.832031 C 2.933594 11.492188 2.738281 11.132812 2.578125 10.753906 C 2.417969 10.371094 2.296875 9.980469 2.214844 9.578125 C 2.132812 9.175781 2.09375 8.769531 2.09375 8.359375 Z M 2.09375 8.359375 " fill-opacity="1" fill-rule="nonzero"/></g></svg>