<svg xmlns="http://www.w3.org/2000/svg" xmlns:xlink="http://www.w3.org/1999/xlink" width="69" zoomAndPan="magnify" viewBox="0 0 51.75 51.749998" height="69" preserveAspectRatio="xMidYMid meet" version="1.0"><defs><clipPath id="7d6090bd52"><path d="M 0 0 L 51.34375 0 L 51.34375 51.34375 L 0 51.34375 Z M 0 0 " clip-rule="nonzero"/></clipPath><clipPath id="14997b02d0"><path d="M 25.671875 0 C 11.492188 0 0 11.492188 0 25.671875 C 0 39.851562 11.492188 51.34375 25.671875 51.34375 C 39.851562 51.34375 51.34375 39.851562 51.34375 25.671875 C 51.34375 11.492188 39.851562 0 25.671875 0 Z M 25.671875 0 " clip-rule="nonzero"/></clipPath><clipPath id="fc8fec6207"><path d="M 0 0 L 51.34375 0 L 51.34375 51.34375 L 0 51.34375 Z M 0 0 " clip-rule="nonzero"/></clipPath><clipPath id="edebc662ae"><path d="M 25.671875 0 C 11.492188 0 0 11.492188 0 25.671875 C 0 39.851562 11.492188 51.34375 25.671875 51.34375 C 39.851562 51.34375 51.34375 39.851562 51.34375 25.671875 C 51.34375 11.492188 39.851562 0 25.671875 0 Z M 25.671875 0 " clip-rule="nonzero"/></clipPath><clipPath id="ec7c63643c"><rect x="0" width="52" y="0" height="52"/></clipPath><clipPath id="2e597103a6"><path d="M 2.183594 2.183594 L 49.160156 2.183594 L 49.160156 49.160156 L 2.183594 49.160156 Z M 2.183594 2.183594 " clip-rule="nonzero"/></clipPath><clipPath id="5a28fca0f5"><path d="M 25.671875 2.183594 C 12.699219 2.183594 2.183594 12.699219 2.183594 25.671875 C 2.183594 38.644531 12.699219 49.160156 25.671875 49.160156 C 38.644531 49.160156 49.160156 38.644531 49.160156 25.671875 C 49.160156 12.699219 38.644531 2.183594 25.671875 2.183594 Z M 25.671875 2.183594 " clip-rule="nonzero"/></clipPath><clipPath id="2595293cce"><path d="M 0.183594 0.183594 L 47.160156 0.183594 L 47.160156 47.160156 L 0.183594 47.160156 Z M 0.183594 0.183594 " clip-rule="nonzero"/></clipPath><clipPath id="c9501da641"><path d="M 23.671875 0.183594 C 10.699219 0.183594 0.183594 10.699219 0.183594 23.671875 C 0.183594 36.644531 10.699219 47.160156 23.671875 47.160156 C 36.644531 47.160156 47.160156 36.644531 47.160156 23.671875 C 47.160156 10.699219 36.644531 0.183594 23.671875 0.183594 Z M 23.671875 0.183594 " clip-rule="nonzero"/></clipPath><clipPath id="aa22715b88"><rect x="0" width="48" y="0" height="48"/></clipPath><clipPath id="ac10385e85"><path d="M 13.46875 8.242188 L 38 8.242188 L 38 39.59375 L 13.46875 39.59375 Z M 13.46875 8.242188 " clip-rule="nonzero"/></clipPath></defs><g clip-path="url(#7d6090bd52)"><g clip-path="url(#14997b02d0)"><g><g clip-path="url(#ec7c63643c)"><g clip-path="url(#fc8fec6207)"><g clip-path="url(#edebc662ae)"><path fill="#fdfdfd" d="M 0 0 L 51.34375 0 L 51.34375 51.34375 L 0 51.34375 Z M 0 0 " fill-opacity="1" fill-rule="nonzero"/></g></g></g></g></g></g><g clip-path="url(#2e597103a6)"><g clip-path="url(#5a28fca0f5)"><g transform="matrix(1, 0, 0, 1, 2, 2)"><g clip-path="url(#aa22715b88)"><g clip-path="url(#2595293cce)"><g clip-path="url(#c9501da641)"><path fill="#4b548b" d="M 0.183594 0.183594 L 47.160156 0.183594 L 47.160156 47.160156 L 0.183594 47.160156 Z M 0.183594 0.183594 " fill-opacity="1" fill-rule="nonzero"/></g></g></g></g></g></g><g clip-path="url(#ac10385e85)"><path fill="#ffffff" d="M 36.5 11.71875 L 31.289062 11.71875 L 28.542969 8.984375 C 28.5 8.941406 28.453125 8.90625 28.410156 8.875 C 27.976562 8.511719 27.296875 8.253906 26.761719 8.253906 L 14.835938 8.253906 C 14.085938 8.253906 13.46875 8.867188 13.46875 9.621094 L 13.46875 35.078125 C 13.46875 35.828125 14.085938 36.445312 14.835938 36.445312 L 16.398438 36.445312 L 16.398438 38.542969 C 16.398438 39.292969 17.011719 39.90625 17.761719 39.90625 L 36.5 39.90625 C 37.253906 39.90625 37.867188 39.292969 37.867188 38.542969 L 37.867188 13.082031 C 37.867188 12.328125 37.253906 11.71875 36.5 11.71875 Z M 28.128906 10.136719 L 33.035156 15.011719 L 28.382812 15.011719 C 28.238281 15.011719 28.121094 14.894531 28.121094 14.753906 L 28.121094 10.136719 Z M 14.578125 35.078125 L 14.578125 9.621094 C 14.578125 9.480469 14.695312 9.363281 14.835938 9.363281 L 26.761719 9.363281 C 26.84375 9.363281 26.9375 9.375 27.035156 9.402344 C 27.023438 9.46875 27.019531 9.542969 27.019531 9.617188 L 27.019531 14.75 C 27.019531 15.5 27.632812 16.117188 28.386719 16.117188 L 33.574219 16.117188 C 33.652344 16.117188 33.722656 16.109375 33.789062 16.101562 C 33.8125 16.199219 33.828125 16.289062 33.828125 16.375 L 33.828125 35.074219 C 33.828125 35.214844 33.710938 35.332031 33.566406 35.332031 L 14.835938 35.332031 C 14.695312 35.335938 14.578125 35.21875 14.578125 35.078125 Z M 36.757812 38.542969 C 36.757812 38.683594 36.640625 38.800781 36.5 38.800781 L 17.761719 38.800781 C 17.621094 38.800781 17.503906 38.683594 17.503906 38.542969 L 17.503906 36.445312 L 33.574219 36.445312 C 34.324219 36.445312 34.9375 35.828125 34.9375 35.078125 L 34.9375 16.378906 C 34.9375 15.84375 34.679688 15.171875 34.320312 14.738281 C 34.285156 14.695312 34.246094 14.652344 34.199219 14.601562 L 32.40625 12.828125 L 36.5 12.828125 C 36.640625 12.828125 36.757812 12.945312 36.757812 13.085938 Z M 30.722656 20.257812 L 17.683594 20.257812 C 17.421875 20.257812 17.210938 20.042969 17.210938 19.785156 C 17.210938 19.527344 17.425781 19.3125 17.683594 19.3125 L 30.722656 19.3125 C 30.988281 19.3125 31.195312 19.527344 31.195312 19.785156 C 31.195312 20.042969 30.988281 20.257812 30.722656 20.257812 Z M 30.722656 23.722656 L 17.683594 23.722656 C 17.421875 23.722656 17.210938 23.507812 17.210938 23.25 C 17.210938 22.992188 17.425781 22.777344 17.683594 22.777344 L 30.722656 22.777344 C 30.988281 22.777344 31.195312 22.992188 31.195312 23.25 C 31.195312 23.507812 30.988281 23.722656 30.722656 23.722656 Z M 30.722656 27.183594 L 17.683594 27.183594 C 17.421875 27.183594 17.210938 26.96875 17.210938 26.707031 C 17.210938 26.449219 17.425781 26.234375 17.683594 26.234375 L 30.722656 26.234375 C 30.988281 26.234375 31.195312 26.449219 31.195312 26.707031 C 31.195312 26.96875 30.988281 27.183594 30.722656 27.183594 Z M 23.277344 30.648438 L 17.683594 30.648438 C 17.421875 30.648438 17.210938 30.433594 17.210938 30.171875 C 17.210938 29.910156 17.425781 29.699219 17.683594 29.699219 L 23.277344 29.699219 C 23.539062 29.699219 23.75 29.914062 23.75 30.171875 C 23.75 30.433594 23.539062 30.648438 23.277344 30.648438 Z M 23.277344 30.648438 " fill-opacity="1" fill-rule="nonzero"/></g></svg>